<svg width="129" height="33" viewBox="0 0 129 33" fill="none" xmlns="http://www.w3.org/2000/svg">
<path d="M37.9002 26.5182V9.52939H45.618C47.4625 9.52939 49.0886 9.88535 50.4962 10.5973C51.9039 11.293 53.0041 12.2719 53.7969 13.5339C54.5897 14.7959 54.9861 16.2926 54.9861 18.0238C54.9861 19.7389 54.5897 21.2355 53.7969 22.5137C53.0041 23.7758 51.9039 24.7627 50.4962 25.4746C49.0886 26.1704 47.4625 26.5182 45.618 26.5182H37.9002ZM41.8319 23.2904H45.4238C46.5564 23.2904 47.5353 23.08 48.3605 22.6594C49.2018 22.2225 49.849 21.6077 50.3021 20.8148C50.7713 20.022 51.0059 19.0917 51.0059 18.0238C51.0059 16.9398 50.7713 16.0094 50.3021 15.2328C49.849 14.44 49.2018 13.8332 48.3605 13.4126C47.5353 12.9757 46.5564 12.7573 45.4238 12.7573H41.8319V23.2904ZM64.1643 26.7124C62.6757 26.7124 61.3652 26.4212 60.2326 25.8387C59.1162 25.2562 58.2505 24.4634 57.6357 23.4603C57.0209 22.4409 56.7135 21.2841 56.7135 19.9897C56.7135 18.6791 57.0128 17.5222 57.6114 16.5191C58.2263 15.4998 59.0595 14.7069 60.1112 14.1407C61.1629 13.5582 62.3521 13.2669 63.6789 13.2669C64.9571 13.2669 66.1059 13.542 67.1252 14.0921C68.1607 14.626 68.9778 15.4027 69.5765 16.422C70.1751 17.4252 70.4744 18.6306 70.4744 20.0382C70.4744 20.1838 70.4663 20.3537 70.4502 20.5479C70.434 20.7259 70.4178 20.8957 70.4016 21.0575H59.7957V18.849H68.4115L66.9553 19.5043C66.9553 18.8247 66.8178 18.2342 66.5427 17.7326C66.2677 17.231 65.8874 16.8427 65.4021 16.5676C64.9167 16.2764 64.3504 16.1308 63.7032 16.1308C63.056 16.1308 62.4816 16.2764 61.98 16.5676C61.4946 16.8427 61.1144 17.2391 60.8393 17.7569C60.5643 18.2584 60.4267 18.8571 60.4267 19.5528V20.1353C60.4267 20.8472 60.5805 21.4782 60.8879 22.0283C61.2115 22.5623 61.6564 22.9749 62.2227 23.2661C62.8052 23.5412 63.4847 23.6787 64.2614 23.6787C64.9571 23.6787 65.5638 23.5735 66.0816 23.3632C66.6155 23.1528 67.1009 22.8373 67.5378 22.4167L69.5522 24.6009C68.9535 25.2805 68.2012 25.8063 67.2951 26.1785C66.389 26.5344 65.3454 26.7124 64.1643 26.7124ZM80.7129 26.7124C79.5641 26.7124 78.5771 26.4697 77.752 25.9843C76.9268 25.4989 76.2958 24.7627 75.8589 23.7758C75.4221 22.7726 75.2036 21.5106 75.2036 19.9897C75.2036 18.4526 75.4302 17.1906 75.8832 16.2036C76.3524 15.2166 76.9996 14.4804 77.8248 13.995C78.6499 13.5096 79.6126 13.2669 80.7129 13.2669C81.9426 13.2669 83.0428 13.542 84.0136 14.0921C85.0005 14.6422 85.7772 15.4189 86.3435 16.422C86.9259 17.4252 87.2172 18.6144 87.2172 19.9897C87.2172 21.3488 86.9259 22.5299 86.3435 23.5331C85.7772 24.5362 85.0005 25.3209 84.0136 25.8872C83.0428 26.4374 81.9426 26.7124 80.7129 26.7124ZM72.9951 26.5182V8.51006H76.7812V16.1065L76.5385 19.9654L76.6113 23.8486V26.5182H72.9951ZM80.0576 23.6059C80.6886 23.6059 81.2468 23.4603 81.7322 23.169C82.2338 22.8778 82.6302 22.4652 82.9214 21.9313C83.2288 21.3811 83.3826 20.7339 83.3826 19.9897C83.3826 19.2292 83.2288 18.582 82.9214 18.0481C82.6302 17.5142 82.2338 17.1016 81.7322 16.8103C81.2468 16.5191 80.6886 16.3735 80.0576 16.3735C79.4266 16.3735 78.8603 16.5191 78.3587 16.8103C77.8571 17.1016 77.4607 17.5142 77.1695 18.0481C76.8783 18.582 76.7326 19.2292 76.7326 19.9897C76.7326 20.7339 76.8783 21.3811 77.1695 21.9313C77.4607 22.4652 77.8571 22.8778 78.3587 23.169C78.8603 23.4603 79.4266 23.6059 80.0576 23.6059ZM97.5474 26.5182V23.9699L97.3047 23.4117V18.849C97.3047 18.04 97.0539 17.409 96.5523 16.9559C96.0669 16.5029 95.3146 16.2764 94.2952 16.2764C93.5995 16.2764 92.9119 16.3897 92.2323 16.6162C91.5689 16.8265 91.0026 17.1177 90.5334 17.4899L89.1743 14.8445C89.8862 14.3429 90.7438 13.9546 91.7469 13.6795C92.7501 13.4045 93.7694 13.2669 94.8049 13.2669C96.795 13.2669 98.3402 13.7362 99.4404 14.6746C100.541 15.613 101.091 17.0773 101.091 19.0674V26.5182H97.5474ZM93.5672 26.7124C92.5478 26.7124 91.6741 26.5425 90.946 26.2027C90.2179 25.8468 89.6597 25.3695 89.2714 24.7708C88.8831 24.1722 88.6889 23.5007 88.6889 22.7564C88.6889 21.9798 88.875 21.3002 89.2471 20.7178C89.6354 20.1353 90.2422 19.6823 91.0674 19.3587C91.8925 19.0189 92.9685 18.849 94.2952 18.849H97.7658V21.0575H94.7078C93.8179 21.0575 93.2031 21.2032 92.8633 21.4944C92.5397 21.7856 92.3779 22.1497 92.3779 22.5865C92.3779 23.0719 92.564 23.4603 92.9361 23.7515C93.3245 24.0265 93.8503 24.1641 94.5137 24.1641C95.1447 24.1641 95.711 24.0185 96.2126 23.7272C96.7141 23.4198 97.0782 22.9749 97.3047 22.3924L97.8872 24.1398C97.6121 24.9812 97.1105 25.6203 96.3824 26.0571C95.6544 26.494 94.7159 26.7124 93.5672 26.7124ZM109.857 26.7124C108.32 26.7124 107.122 26.3241 106.265 25.5475C105.407 24.7546 104.979 23.5816 104.979 22.0283V10.573H108.765V21.9798C108.765 22.5299 108.91 22.9587 109.201 23.2661C109.493 23.5573 109.889 23.703 110.391 23.703C110.989 23.703 111.499 23.5412 111.92 23.2176L112.939 25.8872C112.551 26.1623 112.081 26.3726 111.531 26.5182C110.997 26.6477 110.439 26.7124 109.857 26.7124ZM102.964 16.6647V13.7523H112.017V16.6647H102.964ZM121.141 26.7124C119.653 26.7124 118.342 26.4212 117.21 25.8387C116.093 25.2562 115.228 24.4634 114.613 23.4603C113.998 22.4409 113.691 21.2841 113.691 19.9897C113.691 18.6791 113.99 17.5222 114.589 16.5191C115.203 15.4998 116.037 14.7069 117.088 14.1407C118.14 13.5582 119.329 13.2669 120.656 13.2669C121.934 13.2669 123.083 13.542 124.102 14.0921C125.138 14.626 125.955 15.4027 126.554 16.422C127.152 17.4252 127.452 18.6306 127.452 20.0382C127.452 20.1838 127.443 20.3537 127.427 20.5479C127.411 20.7259 127.395 20.8957 127.379 21.0575H116.773V18.849H125.389L123.932 19.5043C123.932 18.8247 123.795 18.2342 123.52 17.7326C123.245 17.231 122.865 16.8427 122.379 16.5676C121.894 16.2764 121.328 16.1308 120.68 16.1308C120.033 16.1308 119.459 16.2764 118.957 16.5676C118.472 16.8427 118.092 17.2391 117.816 17.7569C117.541 18.2584 117.404 18.8571 117.404 19.5528V20.1353C117.404 20.8472 117.558 21.4782 117.865 22.0283C118.189 22.5623 118.634 22.9749 119.2 23.2661C119.782 23.5412 120.462 23.6787 121.239 23.6787C121.934 23.6787 122.541 23.5735 123.059 23.3632C123.593 23.1528 124.078 22.8373 124.515 22.4167L126.529 24.6009C125.931 25.2805 125.178 25.8063 124.272 26.1785C123.366 26.5344 122.323 26.7124 121.141 26.7124Z" fill="#4F4F4F"/>
<path d="M8.44656 13.5136L3.75564 19.6581C3.01585 24.5099 8.8867 26.8334 10.567 25.2006L13.2131 22.655L15.8591 20.1094C10.3786 19.7417 8.63385 15.559 8.44656 13.5136Z" fill="#FA5252"/>
<path d="M13.2131 22.655L10.567 25.2006L13.8822 28.3027C14.2337 28.6114 15.1789 28.9164 16.1478 27.6666C17.1026 26.7142 16.8317 25.9673 16.577 25.7129L13.2131 22.655Z" fill="#FF7474"/>
<path d="M8.44656 13.5136C8.63385 15.559 10.3786 19.7417 15.8591 20.1094L23.598 17.2032C23.808 17.0125 23.9418 16.7786 24.024 16.544C23.7965 16.9453 22.5076 16.9237 19.1883 14.5385C18.3333 13.9241 17.3435 13.1528 16.2024 12.1914C15.1393 11.178 14.2836 10.284 13.5991 9.50045C11.1465 6.69286 10.8921 5.30368 11.1673 4.92237C10.8691 5.07463 10.6465 5.30175 10.5278 5.4743L8.44656 13.5136Z" fill="#B3B3B3"/>
<path d="M24.1226 15.5894C22.0124 10.5113 15.5018 6.35903 12.5103 4.91769C11.9872 4.66547 11.5233 4.74053 11.1673 4.92237C10.8921 5.30368 11.1465 6.69286 13.5991 9.50045C14.0716 9.06225 15.5269 8.65366 17.5677 10.5249C18.6033 11.4621 20.3287 13.5386 19.1883 14.5385C22.5076 16.9237 23.7965 16.9453 24.024 16.544C24.1552 16.1694 24.1548 15.7933 24.1226 15.5894Z" fill="#4F4F4F"/>
<path d="M13.5991 9.50045C14.2836 10.284 15.1393 11.178 16.2024 12.1914C17.3435 13.1528 18.3333 13.9241 19.1883 14.5385C20.3287 13.5386 18.6033 11.4621 17.5677 10.5249C15.5269 8.65366 14.0716 9.06225 13.5991 9.50045Z" fill="#DFDFDF"/>
<rect x="23.9558" y="3.38574" width="1.35971" height="4.07911" rx="0.679853" transform="rotate(44.3165 23.9558 3.38574)" fill="#FF7474"/>
<rect x="17.7598" width="1.35971" height="4.07912" rx="0.679853" transform="rotate(14.3165 17.7598 0)" fill="#FF7474"/>
<rect x="27.9633" y="9.01276" width="1.35971" height="4.07912" rx="0.679853" transform="rotate(74.3165 27.9633 9.01276)" fill="#FF7474"/>
</svg>
